<?xml version="1.0" standalone="no"?><!DOCTYPE svg PUBLIC "-//W3C//DTD SVG 1.1//EN" "http://www.w3.org/Graphics/SVG/1.1/DTD/svg11.dtd"><svg t="1617252743287" class="icon" viewBox="0 0 1024 1024" version="1.1" xmlns="http://www.w3.org/2000/svg" p-id="6973" width="130" height="130" xmlns:xlink="http://www.w3.org/1999/xlink"><defs><style type="text/css"></style></defs><path d="M515.503421 995.472141c-268.261975 0-485.474096-217.212121-485.474095-485.474096S247.741935 25.024438 515.503421 25.024438s485.474096 217.212121 485.474096 485.474096c0 267.761486-217.212121 484.973607-485.474096 484.973607z" fill="#3386FF" p-id="6974"></path><path d="M772.254154 564.55132V349.841642c-33.532747-9.509286-68.56696-13.012708-103.601173-10.510264-54.553275 3.503421-107.605083 19.018573-155.652003 46.044966-43.042033-26.025415-91.589443-41.540567-142.138808-45.544477-53.051808-3.503421-115.612903 9.008798-115.612903 9.008798v216.211143c0 142.639296 115.612903 258.752688 258.752688 258.752689 26.025415 0 51.550342-4.00391 76.074291-11.511242l4.504399-1.000977 109.607038 46.044965-24.523949-93.591397c58.557185-49.548387 92.59042-122.619746 92.59042-199.194526zM772.754643 254.248289C624.609971 228.723363 540.02737 260.254154 510.498534 275.268817c-80.57869-35.034213-171.167155-41.040078-255.749756-16.516129v49.047899c27.526882-9.509286 134.130987-39.538612 246.740958 14.514174l12.512219 6.005865 11.010753-8.007821c0.500489-0.500489 75.573803-50.549365 247.741935-18.518084v-47.546432z" fill="#FFFFFF" p-id="6975"></path><path d="M492.480938 511.499511h39.538612c6.005865 0 11.010753 5.004888 11.010753 11.010753v186.682307c0 6.005865-5.004888 11.010753-11.010753 11.010753h-39.538612c-6.005865 0-11.010753-5.004888-11.010752-11.010753v-186.682307c-0.500489-6.005865 4.504399-11.010753 11.010752-11.010753z" fill="#3386FF" p-id="6976"></path><path d="M512 463.45259m-35.034213 0a35.034213 35.034213 0 1 0 70.068426 0 35.034213 35.034213 0 1 0-70.068426 0Z" fill="#3386FF" p-id="6977"></path></svg>