<svg width="192" height="192" xmlns:xlink="http://www.w3.org/1999/xlink" xmlns="http://www.w3.org/2000/svg"><defs><linearGradient id="a"><stop style="stop-color:#00bdf9;stop-opacity:1" offset="0"/><stop style="stop-color:#4242ff;stop-opacity:1" offset="1"/></linearGradient><linearGradient xlink:href="#a" id="c" x1="0" y1="192" x2="192" y2="0" gradientUnits="userSpaceOnUse"/><linearGradient xlink:href="#a" id="d" gradientUnits="userSpaceOnUse" x1="0" y1="0" x2="192" y2="192"/><linearGradient xlink:href="#a" id="b" x1="184" y1="184" x2="152" y2="152" gradientUnits="userSpaceOnUse"/></defs><path style="fill:none;stroke:url(#b);stroke-width:24;stroke-linecap:round;stroke-linejoin:miter;stroke-miterlimit:4;stroke-dasharray:none;stroke-opacity:1" d="m172 172-20-20"/><path style="fill:url(#c);fill-opacity:1;stroke:none;stroke-width:24;stroke-linecap:round;stroke-linejoin:round;stroke-miterlimit:4;stroke-dasharray:none;stroke-opacity:1" d="M96 8A88 88 0 0 0 8 96a88 88 0 0 0 88 88 88 88 0 0 0 88-88A88 88 0 0 0 96 8Zm0 56a32 32 0 0 1 32 32 32 32 0 0 1-32 32 32 32 0 0 1-32-32 32 32 0 0 1 32-32Z"/><path style="fill:url(#d);fill-opacity:1;stroke:none;stroke-width:24;stroke-linecap:round;stroke-linejoin:round;stroke-miterlimit:4;stroke-dasharray:none;stroke-opacity:1" d="M96 32a64 64 0 0 0-64 64 64 64 0 0 0 64 64 64 64 0 0 0 64-64 64 64 0 0 0-64-64Zm0 32a32 32 0 0 1 32 32 32 32 0 0 1-32 32 32 32 0 0 1-32-32 32 32 0 0 1 32-32Z"/></svg>