<svg width="106" height="85" viewBox="0 0 106 85" fill="none"
    xmlns="http://www.w3.org/2000/svg">
    <path d="M13.7393 71.3241L3.41309 81.6338C2.15269 82.8921 0 81.9995 0 80.2184V54.488C0 52.7067 2.15331 51.8141 3.41352 53.0731L13.7393 63.3887C14.262 63.9093 14.6767 64.5277 14.9597 65.2086C15.2427 65.8894 15.3883 66.6193 15.3883 67.3564C15.3883 68.0935 15.2427 68.8234 14.9597 69.5042C14.6767 70.1851 14.262 70.8035 13.7393 71.3241Z" fill="#3B82F6"/>
    <path d="M91.3683 71.3241L101.694 81.6337C102.955 82.8921 105.108 81.9995 105.108 80.2184V54.488C105.108 52.7067 102.954 51.8141 101.694 53.0731L91.3683 63.3887C90.8456 63.9093 90.4309 64.5277 90.1479 65.2086C89.8649 65.8894 89.7192 66.6193 89.7192 67.3564C89.7192 68.0935 89.8649 68.8234 90.1479 69.5042C90.4309 70.1851 90.8456 70.8035 91.3683 71.3241Z" fill="#3B82F6"/>
    <path d="M49.7091 49.6385L6.82642 6.81672C4.30574 4.29962 0 6.0849 0 9.64715V28.0139C0 29.076 0.422407 30.0945 1.1741 30.8449L44.8945 74.4874C46.9238 76.5064 49.6719 77.6402 52.5368 77.6402C55.4017 77.6402 58.1498 76.5064 60.1791 74.4874L103.932 30.8536C104.685 30.1031 105.108 29.084 105.108 28.0213V9.65448C105.108 6.09239 100.802 4.30703 98.2813 6.8238L55.3984 49.6385C54.6437 50.3912 53.6205 50.814 52.5538 50.814C51.487 50.814 50.4638 50.3912 49.7091 49.6385Z" fill="#3B82F6"/>
</svg>
