<svg xmlns="http://www.w3.org/2000/svg" viewBox="0 0 140.5 140.5"><defs><style>.cls-1{fill:#df4090;}</style></defs><g id="Layer_2" data-name="Layer 2"><g id="Layer_1-2" data-name="Layer 1"><path class="cls-1" d="M70.25,0A70.25,70.25,0,1,0,140.5,70.25,70.34,70.34,0,0,0,70.25,0Zm0,8.92a61.36,61.36,0,0,1,57.46,39.85c-4.53-2.69-13.49-3.54-25-2.58-1.26.1-2.72,1,.06,1.21,3.3.24,8.22,1.31,9.6,4.12,2.68,5.47-7.53,9-11,10.78v0c-.11-.44-.23-.88-.36-1.33A32.11,32.11,0,1,0,39.44,79.12c.13.44.27.87.42,1.31l0,0c-3.83.36-14.33,2.9-15-3.15-.36-3.11,3.19-6.67,5.84-8.66,2.23-1.67.52-1.64-.6-1C19.75,73,12.62,78.62,10.34,83.36A61.32,61.32,0,0,1,70.25,8.92Zm0,122.66A61.34,61.34,0,0,1,12.61,91.25c5.64,3.52,18.62,4,34.94,1.54A32.12,32.12,0,0,0,101.63,76.9c14.91-6.69,25.5-14,28.48-20a61.34,61.34,0,0,1-59.86,74.69Z"/></g></g></svg>