<?xml version="1.0" encoding="UTF-8" standalone="no"?>
<svg
   width="1280"
   height="622.01953"
   overflow="hidden"
   version="1.1"
   id="svg119"
   sodipodi:docname="Slide1.SVG"
   inkscape:version="1.2-beta (1b65182ce9, 2022-04-05)"
   xmlns:inkscape="http://www.inkscape.org/namespaces/inkscape"
   xmlns:sodipodi="http://sodipodi.sourceforge.net/DTD/sodipodi-0.dtd"
   xmlns="http://www.w3.org/2000/svg"
   xmlns:svg="http://www.w3.org/2000/svg">
  <sodipodi:namedview
     id="namedview121"
     pagecolor="#505050"
     bordercolor="#eeeeee"
     borderopacity="1"
     inkscape:pageshadow="0"
     inkscape:pageopacity="0"
     inkscape:pagecheckerboard="0"
     inkscape:deskcolor="#505050"
     showgrid="false"
     inkscape:zoom="0.959375"
     inkscape:cx="582.67101"
     inkscape:cy="328.33876"
     inkscape:window-width="1920"
     inkscape:window-height="1009"
     inkscape:window-x="1912"
     inkscape:window-y="-5"
     inkscape:window-maximized="1"
     inkscape:current-layer="svg119" />
  <defs
     id="defs43">
    <filter
       id="fx0"
       x="-128"
       y="-72"
       width="1536"
       height="864.00006"
       filterUnits="userSpaceOnUse"
       primitiveUnits="userSpaceOnUse">
      <feComponentTransfer
         color-interpolation-filters="sRGB"
         id="feComponentTransfer10">
        <feFuncR
           type="discrete"
           tableValues="0 0"
           id="feFuncR2" />
        <feFuncG
           type="discrete"
           tableValues="0 0"
           id="feFuncG4" />
        <feFuncB
           type="discrete"
           tableValues="0 0"
           id="feFuncB6" />
        <feFuncA
           type="linear"
           slope="0.4"
           intercept="0"
           id="feFuncA8" />
      </feComponentTransfer>
      <feGaussianBlur
         stdDeviation="0.572011 0.572011"
         id="feGaussianBlur12" />
    </filter>
    <filter
       id="fx1"
       x="-128"
       y="-72"
       width="1536"
       height="864.00006"
       filterUnits="userSpaceOnUse"
       primitiveUnits="userSpaceOnUse">
      <feComponentTransfer
         color-interpolation-filters="sRGB"
         id="feComponentTransfer23">
        <feFuncR
           type="discrete"
           tableValues="0 0"
           id="feFuncR15" />
        <feFuncG
           type="discrete"
           tableValues="0 0"
           id="feFuncG17" />
        <feFuncB
           type="discrete"
           tableValues="0 0"
           id="feFuncB19" />
        <feFuncA
           type="linear"
           slope="0.4"
           intercept="0"
           id="feFuncA21" />
      </feComponentTransfer>
      <feGaussianBlur
         stdDeviation="0.572011 0.572011"
         id="feGaussianBlur25" />
    </filter>
    <clipPath
       id="clip3">
      <rect
         x="18"
         y="16"
         width="76"
         height="22"
         id="rect31" />
    </clipPath>
    <clipPath
       id="clip4">
      <rect
         x="0"
         y="0"
         width="110"
         height="56"
         id="rect34" />
    </clipPath>
    <clipPath
       id="clip5">
      <rect
         x="18"
         y="16"
         width="90"
         height="18"
         id="rect37" />
    </clipPath>
    <clipPath
       id="clip6">
      <rect
         x="0"
         y="0"
         width="126"
         height="56"
         id="rect40" />
    </clipPath>
    <clipPath
       clipPathUnits="userSpaceOnUse"
       id="clipPath441">
      <rect
         x="-699"
         y="-299"
         width="1280"
         height="720"
         id="rect443"
         transform="scale(-1,1)" />
    </clipPath>
  </defs>
  <rect
     x="0"
     y="0"
     width="1280"
     height="622.01953"
     fill="#ffffff"
     id="rect45"
     style="stroke-width:0.929471" />
  <path
     d="m 58.5001,123.001 c 0,-26.2339 21.2669,-47.5009 47.5009,-47.5009 h 642.998 c 26.234,0 47.501,21.267 47.501,47.5009 v 189.998 c 0,26.234 -21.267,47.501 -47.501,47.501 H 106.001 c -26.234,0 -47.5009,-21.267 -47.5009,-47.501 z"
     stroke="#787878"
     stroke-width="1.33333"
     stroke-miterlimit="8"
     fill="#a5a5a5"
     fill-rule="evenodd"
     id="path47" />
  <path
     d="m 87.5001,201.167 c 0,-15.28 12.387,-27.667 27.6669,-27.667 h 121.666 c 15.28,0 27.667,12.387 27.667,27.667 v 110.666 c 0,15.28 -12.387,27.667 -27.667,27.667 H 115.167 c -15.2799,0 -27.6669,-12.387 -27.6669,-27.667 z"
     stroke="#2f528f"
     stroke-width="1.33333"
     stroke-miterlimit="8"
     fill="#4472c4"
     fill-rule="evenodd"
     id="path49" />
  <text
     fill="#ffffff"
     font-family="Calibri, Calibri_MSFontService, sans-serif"
     font-weight="400"
     font-size="24px"
     id="text51"
     x="115.026"
     y="235">Browser SPA</text>
  <text
     fill="#ffffff"
     font-family="Calibri, Calibri_MSFontService, sans-serif"
     font-weight="400"
     font-size="24px"
     id="text53"
     x="124.879"
     y="264">React/Vue</text>
  <text
     fill="#ffffff"
     font-family="Calibri, Calibri_MSFontService, sans-serif"
     font-weight="400"
     font-size="24px"
     id="text55"
     x="112.559"
     y="293">Blazor Wasm</text>
  <path
     d="m 552.5,130.834 c 0,-16.201 13.133,-29.334 29.334,-29.334 h 117.332 c 16.201,0 29.334,13.133 29.334,29.334 v 157.332 c 0,16.201 -13.133,29.334 -29.334,29.334 H 581.834 c -16.201,0 -29.334,-13.133 -29.334,-29.334 z"
     stroke="#2f528f"
     stroke-width="1.33333"
     stroke-miterlimit="8"
     fill="#4472c4"
     fill-rule="evenodd"
     id="path57" />
  <text
     fill="#ffffff"
     font-family="Calibri, Calibri_MSFontService, sans-serif"
     font-weight="400"
     font-size="24px"
     id="text59"
     x="575.02002"
     y="130">ASP.NET Core</text>
  <text
     fill="#ffffff"
     font-family="Calibri, Calibri_MSFontService, sans-serif"
     font-weight="400"
     font-size="24px"
     id="text61"
     x="595.10699"
     y="159">Web App</text>
  <text
     fill="#ffffff"
     font-family="Calibri, Calibri_MSFontService, sans-serif"
     font-weight="400"
     font-size="24px"
     id="text63"
     x="571.46698"
     y="188">(host) and API</text>
  <path
     d="m 264,253 h 354.224 v 6 H 264 Z M 601.736,242.909 624.179,256 601.736,269.091 c -1.431,0.835 -3.268,0.352 -4.103,-1.079 -0.835,-1.431 -0.351,-3.268 1.08,-4.103 l 18,-10.5 v 5.182 l -18,-10.5 c -1.431,-0.834 -1.915,-2.671 -1.08,-4.103 0.835,-1.431 2.672,-1.914 4.103,-1.079 z"
     fill="#44546a"
     id="path65" />
  <text
     font-family="Calibri, Calibri_MSFontService, sans-serif"
     font-weight="400"
     font-size="24px"
     id="text67"
     x="370.71399"
     y="228">API Calls</text>
  <text
     fill="#7030a0"
     font-family="Calibri, Calibri_MSFontService, sans-serif"
     font-weight="400"
     font-size="24px"
     id="text69"
     x="314.29401"
     y="286">No server rendering</text>
  <text
     fill="#7030a0"
     font-family="Calibri, Calibri_MSFontService, sans-serif"
     font-weight="400"
     font-size="24px"
     id="text71"
     x="309.888"
     y="315">Cookie or token auth</text>
  <path
     d="m 611.5,459.667 c 0,-12.242 9.925,-22.167 22.167,-22.167 h 132.666 c 12.243,0 22.167,9.925 22.167,22.167 v 88.666 c 0,12.243 -9.924,22.167 -22.167,22.167 H 633.667 c -12.242,0 -22.167,-9.924 -22.167,-22.167 z"
     stroke="#ae5a21"
     stroke-width="1.33333"
     stroke-miterlimit="8"
     fill="#ed7d31"
     fill-rule="evenodd"
     id="path73" />
  <text
     fill="#ffffff"
     font-family="Calibri, Calibri_MSFontService, sans-serif"
     font-weight="400"
     font-size="24px"
     id="text75"
     x="637.53198"
     y="483">Social Logins</text>
  <text
     fill="#ffffff"
     font-family="Calibri, Calibri_MSFontService, sans-serif"
     font-weight="400"
     font-size="24px"
     id="text77"
     x="662.78497"
     y="512">Twitter,</text>
  <text
     fill="#ffffff"
     font-family="Calibri, Calibri_MSFontService, sans-serif"
     font-weight="400"
     font-size="24px"
     id="text79"
     x="628.60498"
     y="541">Microsoft, etc.</text>
  <path
     d="M 3,-2.28304e-6 3.0001,132.016 h -6 L -3,2.28304e-6 Z M 13.0914,115.528 1.05602e-4,137.97 -13.0912,115.528 c -0.8349,-1.431 -0.3515,-3.268 1.0797,-4.103 1.4311,-0.835 3.26808,-0.351 4.10292,1.08 l 10.50002,18 h -5.18268 l 10.49999,-18 c 0.83484,-1.431 2.67175,-1.915 4.10295,-1.08 1.4312,0.835 1.9146,2.672 1.0797,4.103 z"
     fill="#44546a"
     transform="matrix(-1,0,0,1,699,299)"
     id="path81"
     clip-path="url(#clipPath441)" />
  <path
     d="m 1049.5,185.5 c 0,12.15 39.4,22 88,22 48.6,0 88,-9.85 88,-22 v 150 c 0,12.15 -39.4,22 -88,22 -48.6,0 -88,-9.85 -88,-22 z"
     fill="#ffc000"
     fill-rule="evenodd"
     id="path83" />
  <path
     d="m 1049.5,185.5 c 0,-12.15 39.4,-22 88,-22 48.6,0 88,9.85 88,22 0,12.15 -39.4,22 -88,22 -48.6,0 -88,-9.85 -88,-22 z"
     fill="#ffd966"
     fill-rule="evenodd"
     id="path85" />
  <path
     d="m 1225.5,185.5 c 0,12.15 -39.4,22 -88,22 -48.6,0 -88,-9.85 -88,-22 0,-12.15 39.4,-22 88,-22 48.6,0 88,9.85 88,22 v 150 c 0,12.15 -39.4,22 -88,22 -48.6,0 -88,-9.85 -88,-22 v -150"
     stroke="#bc8c00"
     stroke-width="1.33333"
     stroke-miterlimit="8"
     fill="none"
     fill-rule="evenodd"
     id="path87" />
  <g
     clip-path="url(#clip3)"
     filter="url(#fx0)"
     transform="translate(1083,232)"
     id="g93">
    <g
       clip-path="url(#clip4)"
       id="g91">
      <path
         d="m 4.03125,-0.304688 c 0,0.062501 -0.01563,0.117188 -0.04687,0.164063 C 3.95312,-0.09375 3.89844,-0.0566406 3.82031,-0.0292969 3.74219,-0.00195313 3.63867,0.0214844 3.50977,0.0410156 3.38086,0.0605469 3.21875,0.0703125 3.02344,0.0703125 2.83594,0.0703125 2.67578,0.0605469 2.54297,0.0410156 2.41016,0.0214844 2.30469,-0.00195313 2.22656,-0.0292969 2.14844,-0.0566406 2.09375,-0.09375 2.0625,-0.140625 2.03125,-0.1875 2.01562,-0.242187 2.01562,-0.304688 V -14.8594 c 0,-0.0625 0.01758,-0.1172 0.05274,-0.164 0.03516,-0.0469 0.09375,-0.084 0.17578,-0.1114 0.08203,-0.0273 0.1875,-0.0507 0.31641,-0.0703 0.1289,-0.0195 0.2832,-0.0293 0.46289,-0.0293 0.19531,0 0.35742,0.0098 0.48633,0.0293 0.1289,0.0196 0.23242,0.043 0.31054,0.0703 0.07813,0.0274 0.13281,0.0645 0.16407,0.1114 0.03124,0.0468 0.04687,0.1015 0.04687,0.164 z m 12.79685,0.011719 c 0,0.0625 -0.0136,0.117188 -0.041,0.164063 -0.0273,0.0468748 -0.0742,0.0839841 -0.1406,0.1113279 C 16.5801,0.00976562 16.4922,0.03125 16.3828,0.046875 16.2734,0.0625 16.1406,0.0703125 15.9844,0.0703125 15.8203,0.0703125 15.6836,0.0625 15.5742,0.046875 15.4648,0.03125 15.375,0.00976562 15.3047,-0.0175781 15.2344,-0.0449219 15.1836,-0.0820312 15.1523,-0.128906 15.1211,-0.175781 15.1055,-0.230469 15.1055,-0.292969 V -1.6875 c -0.5547,0.60156 -1.1309,1.070313 -1.7285,1.40625 -0.5977,0.3359375 -1.252,0.503906 -1.9629,0.503906 -0.7735,0 -1.43363,-0.1503904 -1.98051,-0.451172 C 8.88672,-0.529297 8.44336,-0.935547 8.10352,-1.44727 7.76367,-1.95898 7.51562,-2.56055 7.35938,-3.25195 7.20312,-3.94336 7.125,-4.67188 7.125,-5.4375 c 0,-0.90625 0.09766,-1.72461 0.29297,-2.45508 0.19531,-0.73047 0.48437,-1.35351 0.86719,-1.86914 0.38281,-0.51558 0.85742,-0.91208 1.42382,-1.18948 0.56642,-0.2773 1.22072,-0.416 1.96292,-0.416 0.6172,0 1.1816,0.1348 1.6933,0.4043 0.5118,0.2695 1.0176,0.666 1.5176,1.18946 v -6.12886 c 0,-0.0547 0.0137,-0.1075 0.041,-0.1582 0.0274,-0.0508 0.0801,-0.0899 0.1582,-0.1172 0.0782,-0.0274 0.1778,-0.0508 0.2989,-0.0703 0.1211,-0.0196 0.2753,-0.0293 0.4629,-0.0293 0.1953,0 0.3554,0.0097 0.4804,0.0293 0.125,0.0195 0.2227,0.0429 0.293,0.0703 0.0703,0.0273 0.123,0.0664 0.1582,0.1172 0.0351,0.0507 0.0527,0.1035 0.0527,0.1582 z M 14.8828,-7.71094 c -0.5234,-0.64844 -1.0293,-1.14258 -1.5176,-1.48242 -0.4882,-0.33984 -0.998,-0.50976 -1.5293,-0.50976 -0.4921,0 -0.9101,0.11718 -1.2539,0.35156 -0.3437,0.23437 -0.62302,0.54297 -0.83786,0.92578 -0.21484,0.38281 -0.37109,0.81641 -0.46875,1.30078 -0.09766,0.48438 -0.14648,0.97656 -0.14648,1.47656 0,0.53125 0.04101,1.05078 0.12304,1.5586 0.08203,0.50781 0.22461,0.95898 0.42774,1.35351 0.20312,0.39453 0.47261,0.71094 0.80861,0.94922 0.3359,0.23828 0.7578,0.35742 1.2656,0.35742 0.2578,0 0.5059,-0.03515 0.7441,-0.10547 0.2383,-0.07031 0.4825,-0.1875 0.7325,-0.35156 0.25,-0.16406 0.5117,-0.37695 0.7851,-0.63867 0.2735,-0.26172 0.5625,-0.58399 0.8672,-0.9668 z m 14.5768,1.6875 c 0,0.30469 -0.0765,0.52149 -0.2295,0.65039 -0.153,0.12891 -0.3277,0.19336 -0.5239,0.19336 h -6.9458 c 0,0.58594 0.0589,1.11328 0.1766,1.58203 0.1178,0.46875 0.314,0.8711 0.5888,1.20704 0.2748,0.33593 0.632,0.59375 1.0716,0.77343 0.4397,0.17969 0.9774,0.26953 1.6133,0.26953 0.5024,0 0.9499,-0.04101 1.3424,-0.12304 0.3925,-0.08203 0.7321,-0.17383 1.0186,-0.27539 0.2866,-0.10157 0.5221,-0.19336 0.7066,-0.27539 0.1845,-0.08204 0.3239,-0.12305 0.4182,-0.12305 0.0549,0 0.1039,0.01367 0.1471,0.04101 0.0431,0.02735 0.0765,0.06836 0.1,0.12305 0.0236,0.05469 0.0413,0.13086 0.0531,0.22852 0.0117,0.09765 0.0176,0.21679 0.0176,0.35742 0,0.10156 -0.0039,0.18945 -0.0117,0.26367 -0.0078,0.07422 -0.0176,0.140626 -0.0293,0.199219 -0.0117,0.058594 -0.0312,0.111329 -0.0586,0.158203 -0.0273,0.046876 -0.0625,0.091797 -0.1055,0.134766 -0.0429,0.042969 -0.1699,0.113281 -0.3808,0.210938 -0.211,0.097656 -0.4844,0.193359 -0.8203,0.287109 -0.336,0.09375 -0.7246,0.1777344 -1.166,0.251953 -0.4414,0.074219 -0.9122,0.111328 -1.4122,0.111328 -0.8671,0 -1.6269,-0.121094 -2.2792,-0.363281 -0.6524,-0.242187 -1.2012,-0.601563 -1.6465,-1.078125 -0.4453,-0.47656 -0.7813,-1.07422 -1.0078,-1.79297 -0.2266,-0.71875 -0.3399,-1.55469 -0.3399,-2.50781 0,-0.90625 0.1172,-1.7207 0.3516,-2.44336 0.2343,-0.72266 0.5722,-1.33594 1.0136,-1.83984 0.4415,-0.50387 0.9747,-0.89067 1.5997,-1.16017 0.625,-0.2695 1.3242,-0.4043 2.0976,-0.4043 0.8281,0 1.5332,0.1328 2.1152,0.3984 0.5821,0.2657 1.0606,0.6231 1.4356,1.07232 0.375,0.44921 0.6504,0.97656 0.8262,1.58203 0.1757,0.60547 0.2636,1.25195 0.2636,1.93945 z m -1.9453,-0.57422 c 0.0235,-1.01562 -0.2026,-1.8125 -0.678,-2.39062 -0.4755,-0.57813 -1.1809,-0.86719 -2.1163,-0.86719 -0.4795,0 -0.9001,0.08985 -1.2616,0.26953 -0.3616,0.17969 -0.6643,0.41797 -0.908,0.71485 -0.2437,0.29687 -0.4323,0.64257 -0.566,1.03711 -0.1336,0.39453 -0.2082,0.80664 -0.224,1.23632 z m 14.0274,6.304691 c 0,0.0625 -0.0157,0.115235 -0.0469,0.158203 -0.0313,0.0429691 -0.082,0.0800785 -0.1524,0.1113285 -0.0703,0.03125 -0.1679,0.0546875 -0.2929,0.0703125 -0.125,0.015625 -0.2813,0.0234375 -0.4688,0.0234375 -0.1953,0 -0.3554,-0.0078125 -0.4804,-0.0234375 -0.125,-0.015625 -0.2227,-0.0390625 -0.293,-0.0703125 -0.0703,-0.03125 -0.1211,-0.0683594 -0.1524,-0.1113285 -0.0312,-0.042968 -0.0468,-0.095703 -0.0468,-0.158203 V -6.46875 c 0,-0.60156 -0.0469,-1.08594 -0.1407,-1.45313 -0.0937,-0.36718 -0.2304,-0.68359 -0.4101,-0.94921 -0.1797,-0.26563 -0.4121,-0.46875 -0.6973,-0.60938 -0.2851,-0.14062 -0.6152,-0.21094 -0.9902,-0.21094 -0.4844,0 -0.9688,0.17188 -1.4531,0.51563 -0.4844,0.34375 -0.9922,0.84766 -1.5235,1.51172 v 7.371091 c 0,0.0625 -0.0156,0.115235 -0.0468,0.158203 -0.0313,0.0429691 -0.0821,0.0800785 -0.1524,0.1113285 C 34.1237,0.0078125 34.026,0.03125 33.901,0.046875 33.776,0.0625 33.6159,0.0703125 33.4206,0.0703125 33.2331,0.0703125 33.0768,0.0625 32.9518,0.046875 32.8268,0.03125 32.7272,0.0078125 32.653,-0.0234375 32.5788,-0.0546875 32.528,-0.0917969 32.5007,-0.134766 32.4733,-0.177734 32.4596,-0.230469 32.4596,-0.292969 V -10.8398 c 0,-0.0625 0.0118,-0.1153 0.0352,-0.1582 0.0234,-0.043 0.0703,-0.0821 0.1406,-0.1172 0.0703,-0.0352 0.1602,-0.0586 0.2695,-0.0703 0.1094,-0.0118 0.254,-0.0176 0.4336,-0.0176 0.1719,0 0.3145,0.0058 0.4278,0.0176 0.1133,0.0117 0.2011,0.0351 0.2636,0.0703 0.0625,0.0351 0.1075,0.0742 0.1348,0.1172 0.0274,0.0429 0.041,0.0957 0.041,0.1582 v 1.39449 c 0.5938,-0.66409 1.1856,-1.15039 1.7754,-1.45899 0.5899,-0.3086 1.1856,-0.4629 1.7871,-0.4629 0.7032,0 1.295,0.1192 1.7754,0.3574 0.4805,0.2383 0.8692,0.5567 1.166,0.9551 0.2969,0.39845 0.5098,0.86525 0.6387,1.4004 0.1289,0.53516 0.1934,1.17774 0.1934,1.92774 z m 8.849,-0.773441 c 0,0.226566 -0.0156,0.406254 -0.0469,0.539066 -0.0312,0.132813 -0.0781,0.230469 -0.1406,0.292969 -0.0625,0.0625 -0.1563,0.121094 -0.2813,0.1757812 -0.125,0.05468755 -0.2675,0.0996094 -0.4277,0.1347657 C 49.334,0.111328 49.1641,0.140625 48.9844,0.164062 48.8047,0.1875 48.6251,0.199219 48.4454,0.199219 c -0.5469,0 -1.0157,-0.072266 -1.4063,-0.2167971 C 46.6485,-0.162109 46.3282,-0.380859 46.0782,-0.673828 45.8282,-0.966797 45.6465,-1.33789 45.5333,-1.78711 45.42,-2.23633 45.3633,-2.76562 45.3633,-3.375 v -6.16406 h -1.4765 c -0.1172,0 -0.211,-0.0625 -0.2813,-0.1875 -0.0703,-0.125 -0.1054,-0.32814 -0.1054,-0.60934 0,-0.1485 0.0097,-0.2735 0.0293,-0.375 0.0195,-0.1016 0.0449,-0.1856 0.0761,-0.252 0.0313,-0.0664 0.0723,-0.1133 0.1231,-0.1406 0.0508,-0.0274 0.1074,-0.041 0.1699,-0.041 h 1.4648 v -2.5078 c 0,-0.0547 0.0137,-0.1055 0.0411,-0.1524 0.0273,-0.0469 0.0781,-0.0879 0.1523,-0.123 0.0742,-0.0352 0.1738,-0.0606 0.2988,-0.0762 0.125,-0.0156 0.2813,-0.0234 0.4688,-0.0234 0.1953,0 0.3554,0.0078 0.4804,0.0234 0.125,0.0156 0.2227,0.041 0.293,0.0762 0.0703,0.0351 0.1211,0.0761 0.1524,0.123 0.0312,0.0469 0.0468,0.0977 0.0468,0.1524 v 2.5078 h 2.7071 c 0.0625,0 0.1171,0.0136 0.164,0.041 0.0469,0.0273 0.0879,0.0742 0.1231,0.1406 0.0351,0.0664 0.0605,0.1504 0.0761,0.252 0.0157,0.1015 0.0235,0.2265 0.0235,0.375 0,0.2812 -0.0352,0.48434 -0.1055,0.60934 -0.0703,0.125 -0.1641,0.1875 -0.2812,0.1875 h -2.7071 v 5.88281 c 0,0.72656 0.1075,1.27539 0.3223,1.64648 0.2148,0.3711 0.5996,0.55665 1.1543,0.55665 0.1797,0 0.3398,-0.01758 0.4805,-0.05274 0.1406,-0.03516 0.2656,-0.07226 0.375,-0.11133 0.1093,-0.03906 0.2031,-0.07617 0.2812,-0.11133 0.0781,-0.03515 0.1484,-0.05273 0.2109,-0.05273 0.0391,0 0.0762,0.00977 0.1114,0.0293 0.0351,0.01953 0.0625,0.05664 0.082,0.11133 0.0195,0.05468 0.0371,0.1289 0.0527,0.22265 0.0157,0.09375 0.0235,0.21094 0.0235,0.35156 z m 4.4492,0.773441 c 0,0.0625 -0.0156,0.115235 -0.0469,0.158203 -0.0312,0.0429691 -0.082,0.0800785 -0.1523,0.1113285 -0.0703,0.03125 -0.168,0.0546875 -0.293,0.0703125 -0.125,0.015625 -0.2851,0.0234375 -0.4805,0.0234375 -0.1875,0 -0.3437,-0.0078125 -0.4687,-0.0234375 -0.125,-0.015625 -0.2246,-0.0390625 -0.2988,-0.0703125 -0.0743,-0.03125 -0.125,-0.0683594 -0.1524,-0.1113285 -0.0273,-0.042968 -0.041,-0.095703 -0.041,-0.158203 V -10.8398 c 0,-0.0547 0.0137,-0.1055 0.041,-0.1524 0.0274,-0.0469 0.0781,-0.0859 0.1524,-0.1172 0.0742,-0.0312 0.1738,-0.0547 0.2988,-0.0703 0.125,-0.0156 0.2812,-0.0234 0.4687,-0.0234 0.1954,0 0.3555,0.0078 0.4805,0.0234 0.125,0.0156 0.2227,0.0391 0.293,0.0703 0.0703,0.0313 0.1211,0.0703 0.1523,0.1172 0.0313,0.0469 0.0469,0.0977 0.0469,0.1524 z M 55.0626,-14.4023 c 0,0.4531 -0.086,0.7617 -0.2579,0.9257 -0.1718,0.1641 -0.4882,0.2461 -0.9492,0.2461 -0.4531,0 -0.7636,-0.08 -0.9316,-0.2402 -0.168,-0.1602 -0.252,-0.4629 -0.252,-0.9082 0,-0.4531 0.086,-0.7617 0.2578,-0.9258 0.1719,-0.164 0.4883,-0.2461 0.9493,-0.2461 0.4531,0 0.7636,0.0801 0.9316,0.2403 0.168,0.1601 0.252,0.4628 0.252,0.9082 z m 8.8281,13.33589 c 0,0.226566 -0.0156,0.406254 -0.0469,0.539066 -0.0312,0.132813 -0.0781,0.230469 -0.1406,0.292969 -0.0625,0.0625 -0.1563,0.121094 -0.2813,0.1757812 -0.125,0.05468755 -0.2675,0.0996094 -0.4277,0.1347657 C 62.834,0.111328 62.6641,0.140625 62.4844,0.164062 62.3047,0.1875 62.1251,0.199219 61.9454,0.199219 c -0.5469,0 -1.0157,-0.072266 -1.4063,-0.2167971 C 60.1485,-0.162109 59.8282,-0.380859 59.5782,-0.673828 59.3282,-0.966797 59.1465,-1.33789 59.0333,-1.78711 58.92,-2.23633 58.8633,-2.76562 58.8633,-3.375 v -6.16406 h -1.4765 c -0.1172,0 -0.211,-0.0625 -0.2813,-0.1875 -0.0703,-0.125 -0.1054,-0.32814 -0.1054,-0.60934 0,-0.1485 0.0097,-0.2735 0.0293,-0.375 0.0195,-0.1016 0.0449,-0.1856 0.0761,-0.252 0.0313,-0.0664 0.0723,-0.1133 0.1231,-0.1406 0.0508,-0.0274 0.1074,-0.041 0.1699,-0.041 h 1.4648 v -2.5078 c 0,-0.0547 0.0137,-0.1055 0.0411,-0.1524 0.0273,-0.0469 0.0781,-0.0879 0.1523,-0.123 0.0742,-0.0352 0.1738,-0.0606 0.2988,-0.0762 0.125,-0.0156 0.2813,-0.0234 0.4688,-0.0234 0.1953,0 0.3554,0.0078 0.4804,0.0234 0.125,0.0156 0.2227,0.041 0.293,0.0762 0.0703,0.0351 0.1211,0.0761 0.1524,0.123 0.0312,0.0469 0.0468,0.0977 0.0468,0.1524 v 2.5078 h 2.7071 c 0.0625,0 0.1171,0.0136 0.164,0.041 0.0469,0.0273 0.0879,0.0742 0.1231,0.1406 0.0351,0.0664 0.0605,0.1504 0.0761,0.252 0.0157,0.1015 0.0235,0.2265 0.0235,0.375 0,0.2812 -0.0352,0.48434 -0.1055,0.60934 -0.0703,0.125 -0.1641,0.1875 -0.2812,0.1875 h -2.7071 v 5.88281 c 0,0.72656 0.1075,1.27539 0.3223,1.64648 0.2148,0.3711 0.5996,0.55665 1.1543,0.55665 0.1797,0 0.3398,-0.01758 0.4805,-0.05274 0.1406,-0.03516 0.2656,-0.07226 0.375,-0.11133 0.1093,-0.03906 0.2031,-0.07617 0.2812,-0.11133 0.0781,-0.03515 0.1484,-0.05273 0.2109,-0.05273 0.0391,0 0.0762,0.00977 0.1114,0.0293 0.0351,0.01953 0.0625,0.05664 0.082,0.11133 0.0195,0.05468 0.0371,0.1289 0.0527,0.22265 0.0157,0.09375 0.0235,0.21094 0.0235,0.35156 z M 71.211,0 69.8047,3.87891 c -0.0468,0.125 -0.166,0.2207 -0.3574,0.28711 -0.1914,0.0664 -0.4824,0.0996 -0.873,0.0996 -0.2032,0 -0.3672,-0.00976 -0.4922,-0.02929 C 67.9571,4.2168 67.8614,4.18359 67.795,4.13672 67.7286,4.08984 67.6915,4.02734 67.6836,3.94922 67.6758,3.87109 67.6954,3.77734 67.7422,3.66797 L 69.1954,0 C 69.1251,-0.03125 69.0586,-0.0820312 68.9961,-0.152344 68.9336,-0.222656 68.8907,-0.296875 68.8672,-0.375 l -3.7617,-10.0781 c -0.0625,-0.1641 -0.0937,-0.293 -0.0937,-0.3867 0,-0.0938 0.0312,-0.168 0.0937,-0.2227 0.0625,-0.0547 0.1641,-0.0918 0.3047,-0.1113 0.1406,-0.0196 0.3281,-0.0293 0.5625,-0.0293 0.2344,0 0.418,0.0058 0.5508,0.0176 0.1328,0.0117 0.2383,0.0332 0.3164,0.0644 0.0781,0.0313 0.1348,0.0762 0.1699,0.1348 0.0352,0.0586 0.0723,0.1386 0.1113,0.2402 l 3.0118,8.46094 h 0.0351 l 2.9063,-8.50784 c 0.0468,-0.1484 0.1035,-0.2441 0.1699,-0.2871 0.0664,-0.0429 0.166,-0.0742 0.2988,-0.0937 0.1328,-0.0196 0.3242,-0.0293 0.5742,-0.0293 0.2188,0 0.3985,0.0097 0.5391,0.0293 0.1406,0.0195 0.2441,0.0566 0.3106,0.1113 0.0664,0.0547 0.0996,0.1289 0.0996,0.2227 0,0.0937 -0.0235,0.2109 -0.0704,0.3515 z"
         transform="translate(17.0172,33)"
         id="path89" />
    </g>
  </g>
  <text
     font-family="Calibri, Calibri_MSFontService, sans-serif"
     font-weight="400"
     font-size="24px"
     id="text95"
     x="1099.3199"
     y="264">Identity</text>
  <g
     clip-path="url(#clip5)"
     filter="url(#fx1)"
     transform="translate(1075,261)"
     id="g101">
    <g
       clip-path="url(#clip6)"
       id="g99">
      <path
         d="m 13.6758,-7.80469 c 0,1.3125 -0.168,2.45899 -0.5039,3.43946 -0.336,0.98046 -0.8262,1.79296 -1.4707,2.4375 -0.6446,0.64453 -1.4356,1.126949 -2.37308,1.447261 C 8.39062,-0.160156 7.27344,0 5.97656,0 H 2.76562 C 2.58594,0 2.41602,-0.0605469 2.25586,-0.181641 2.0957,-0.302734 2.01562,-0.515625 2.01562,-0.820312 V -14.3438 c 0,-0.3046 0.08008,-0.5175 0.24024,-0.6386 0.16016,-0.1211 0.33008,-0.1817 0.50976,-0.1817 h 3.4336 c 1.3125,0 2.42187,0.17 3.32812,0.5098 0.90626,0.3398 1.66606,0.8281 2.27926,1.4648 0.6133,0.6368 1.0782,1.4083 1.3946,2.3145 0.3164,0.90625 0.4746,1.92969 0.4746,3.07031 z m -2.1211,0.08203 c 0,-0.82031 -0.1016,-1.58398 -0.3047,-2.29104 -0.2031,-0.707 -0.5215,-1.3183 -0.9551,-1.834 -0.43357,-0.5156 -0.9824,-0.9179 -1.64646,-1.207 -0.66407,-0.289 -1.51953,-0.4336 -2.56641,-0.4336 H 4.03125 v 11.8008 h 2.07422 c 0.96875,0 1.78515,-0.12109 2.44922,-0.36328 0.66406,-0.24219 1.21875,-0.61328 1.66411,-1.11328 0.4453,-0.5 0.7792,-1.12696 1.0019,-1.88086 0.2227,-0.75391 0.334,-1.64649 0.334,-2.67774 z m 13.0169,7.44141 c 0,0.09375 -0.0312,0.164063 -0.0937,0.2109375 -0.0625,0.046875 -0.1485,0.0820313 -0.2578,0.1054687 -0.1094,0.0234375 -0.2696,0.0351563 -0.4805,0.0351563 -0.2031,0 -0.3653,-0.0117188 -0.4863,-0.0351563 C 23.1322,0.0117188 23.0443,-0.0234375 22.9896,-0.0703125 22.9349,-0.117187 22.9076,-0.1875 22.9076,-0.28125 v -1.05469 c -0.461,0.49219 -0.9747,0.875003 -1.5411,1.14844 -0.5664,0.2734375 -1.166,0.410156 -1.7988,0.410156 -0.5547,0 -1.0566,-0.072265 -1.5059,-0.21679662 C 17.6126,-0.138672 17.2298,-0.347656 16.9134,-0.621094 16.597,-0.894531 16.3509,-1.23047 16.1751,-1.62891 c -0.1758,-0.39843 -0.2636,-0.85156 -0.2636,-1.35937 0,-0.59375 0.1211,-1.10938 0.3632,-1.54688 0.2422,-0.4375 0.5899,-0.80078 1.043,-1.08984 0.4531,-0.28906 1.0078,-0.50586 1.6641,-0.65039 0.6562,-0.14453 1.3945,-0.2168 2.2148,-0.2168 h 1.4531 V -7.3125 c 0,-0.40625 -0.0429,-0.76562 -0.1289,-1.07812 -0.0859,-0.3125 -0.2246,-0.57227 -0.416,-0.7793 -0.1914,-0.20703 -0.4394,-0.36328 -0.7441,-0.46875 -0.3047,-0.10547 -0.6797,-0.15821 -1.125,-0.15821 -0.4766,0 -0.9043,0.05665 -1.2832,0.16993 -0.3789,0.11328 -0.711,0.23828 -0.9961,0.375 -0.2852,0.13672 -0.5235,0.26172 -0.7149,0.375 -0.1914,0.11328 -0.3339,0.16992 -0.4277,0.16992 -0.0625,0 -0.1172,-0.01563 -0.1641,-0.04688 -0.0468,-0.03125 -0.0879,-0.07812 -0.123,-0.14062 -0.0352,-0.0625 -0.0606,-0.14258 -0.0762,-0.24024 -0.0156,-0.09765 -0.0234,-0.20507 -0.0234,-0.32226 0,-0.19531 0.0137,-0.34961 0.041,-0.46289 0.0273,-0.11328 0.0937,-0.22068 0.1992,-0.32228 0.1055,-0.1016 0.2871,-0.2207 0.5449,-0.3574 0.2579,-0.1367 0.5547,-0.2617 0.8907,-0.375 0.3359,-0.1133 0.7031,-0.207 1.1015,-0.2813 0.3985,-0.0742 0.8008,-0.1113 1.2071,-0.1113 0.7578,0 1.4023,0.086 1.9336,0.2578 0.5312,0.1719 0.9609,0.4239 1.289,0.7559 0.3281,0.332 0.5664,0.74412 0.7149,1.23631 0.1484,0.49219 0.2226,1.06641 0.2226,1.72266 z m -1.9219,-4.81641 h -1.6523 c -0.5313,0 -0.9922,0.04493 -1.3828,0.13477 -0.3906,0.08984 -0.7149,0.22266 -0.9727,0.39844 -0.2578,0.17578 -0.4472,0.38672 -0.5683,0.63281 -0.1211,0.24609 -0.1817,0.5293 -0.1817,0.84961 0,0.54687 0.1739,0.98242 0.5215,1.30664 0.3477,0.32422 0.834,0.48633 1.459,0.48633 0.5078,0 0.9785,-0.12891 1.4121,-0.38672 0.4336,-0.25781 0.8887,-0.65234 1.3652,-1.1836 z m 10.741,4.03125 c 0,0.226566 -0.0156,0.406254 -0.0469,0.539066 -0.0312,0.132813 -0.0781,0.230469 -0.1406,0.292969 -0.0625,0.0625 -0.1563,0.121094 -0.2813,0.1757812 -0.125,0.05468755 -0.2675,0.0996094 -0.4277,0.1347657 C 32.334,0.111328 32.1641,0.140625 31.9844,0.164062 31.8047,0.1875 31.6251,0.199219 31.4454,0.199219 c -0.5469,0 -1.0157,-0.072266 -1.4063,-0.2167971 C 29.6485,-0.162109 29.3282,-0.380859 29.0782,-0.673828 28.8282,-0.966797 28.6465,-1.33789 28.5333,-1.78711 28.42,-2.23633 28.3633,-2.76562 28.3633,-3.375 v -6.16406 h -1.4765 c -0.1172,0 -0.211,-0.0625 -0.2813,-0.1875 -0.0703,-0.125 -0.1054,-0.32814 -0.1054,-0.60934 0,-0.1485 0.0097,-0.2735 0.0293,-0.375 0.0195,-0.1016 0.0449,-0.1856 0.0761,-0.252 0.0313,-0.0664 0.0723,-0.1133 0.1231,-0.1406 0.0507,-0.0274 0.1074,-0.041 0.1699,-0.041 h 1.4648 v -2.5078 c 0,-0.0547 0.0137,-0.1055 0.0411,-0.1524 0.0273,-0.0469 0.0781,-0.0879 0.1523,-0.123 0.0742,-0.0352 0.1738,-0.0606 0.2988,-0.0762 0.125,-0.0156 0.2813,-0.0234 0.4688,-0.0234 0.1953,0 0.3554,0.0078 0.4804,0.0234 0.125,0.0156 0.2227,0.041 0.293,0.0762 0.0703,0.0351 0.1211,0.0761 0.1524,0.123 0.0312,0.0469 0.0468,0.0977 0.0468,0.1524 v 2.5078 h 2.7071 c 0.0625,0 0.1171,0.0136 0.164,0.041 0.0469,0.0273 0.0879,0.0742 0.1231,0.1406 0.0351,0.0664 0.0605,0.1504 0.0761,0.252 0.0157,0.1015 0.0235,0.2265 0.0235,0.375 0,0.2812 -0.0352,0.48434 -0.1055,0.60934 -0.0703,0.125 -0.1641,0.1875 -0.2812,0.1875 h -2.7071 v 5.88281 c 0,0.72656 0.1074,1.27539 0.3223,1.64648 0.2148,0.3711 0.5996,0.55665 1.1543,0.55665 0.1797,0 0.3398,-0.01758 0.4805,-0.05274 0.1406,-0.03516 0.2656,-0.07226 0.375,-0.11133 0.1093,-0.03906 0.2031,-0.07617 0.2812,-0.11133 0.0781,-0.03515 0.1484,-0.05273 0.2109,-0.05273 0.0391,0 0.0762,0.00977 0.1114,0.0293 0.0351,0.01953 0.0625,0.05664 0.082,0.11133 0.0195,0.05468 0.0371,0.1289 0.0527,0.22265 0.0157,0.09375 0.0235,0.21094 0.0235,0.35156 z m 10.1676,0.78516 c 0,0.09375 -0.0313,0.164063 -0.0938,0.2109375 -0.0625,0.046875 -0.1484,0.0820313 -0.2578,0.1054687 -0.1094,0.0234375 -0.2695,0.0351563 -0.4805,0.0351563 -0.2031,0 -0.3652,-0.0117188 -0.4863,-0.0351563 C 42.1188,0.0117188 42.0309,-0.0234375 41.9762,-0.0703125 41.9216,-0.117187 41.8942,-0.1875 41.8942,-0.28125 v -1.05469 c -0.4609,0.49219 -0.9746,0.875003 -1.541,1.14844 -0.5664,0.2734375 -1.166,0.410156 -1.7988,0.410156 -0.5547,0 -1.0567,-0.072265 -1.5059,-0.21679662 C 36.5993,-0.138672 36.2165,-0.347656 35.9001,-0.621094 35.5837,-0.894531 35.3376,-1.23047 35.1618,-1.62891 34.986,-2.02734 34.8981,-2.48047 34.8981,-2.98828 c 0,-0.59375 0.1211,-1.10938 0.3633,-1.54688 0.2422,-0.4375 0.5898,-0.80078 1.043,-1.08984 0.4531,-0.28906 1.0078,-0.50586 1.664,-0.65039 0.6563,-0.14453 1.3946,-0.2168 2.2149,-0.2168 h 1.4531 V -7.3125 c 0,-0.40625 -0.043,-0.76562 -0.1289,-1.07812 -0.0859,-0.3125 -0.2246,-0.57227 -0.416,-0.7793 -0.1914,-0.20703 -0.4395,-0.36328 -0.7442,-0.46875 -0.3046,-0.10547 -0.6796,-0.15821 -1.125,-0.15821 -0.4765,0 -0.9043,0.05665 -1.2832,0.16993 -0.3789,0.11328 -0.7109,0.23828 -0.9961,0.375 -0.2851,0.13672 -0.5234,0.26172 -0.7148,0.375 -0.1914,0.11328 -0.334,0.16992 -0.4277,0.16992 -0.0625,0 -0.1172,-0.01563 -0.1641,-0.04688 -0.0469,-0.03125 -0.0879,-0.07812 -0.123,-0.14062 -0.0352,-0.0625 -0.0606,-0.14258 -0.0762,-0.24024 -0.0156,-0.09765 -0.0235,-0.20507 -0.0235,-0.32226 0,-0.19531 0.0137,-0.34961 0.0411,-0.46289 0.0273,-0.11328 0.0937,-0.22068 0.1992,-0.32228 0.1055,-0.1016 0.2871,-0.2207 0.5449,-0.3574 0.2578,-0.1367 0.5547,-0.2617 0.8906,-0.375 0.336,-0.1133 0.7032,-0.207 1.1016,-0.2813 0.3984,-0.0742 0.8008,-0.1113 1.207,-0.1113 0.7578,0 1.4024,0.086 1.9336,0.2578 0.5313,0.1719 0.961,0.4239 1.2891,0.7559 0.3281,0.332 0.5664,0.74412 0.7148,1.23631 0.1485,0.49219 0.2227,1.06641 0.2227,1.72266 z m -1.9219,-4.81641 h -1.6523 c -0.5313,0 -0.9922,0.04493 -1.3829,0.13477 -0.3906,0.08984 -0.7148,0.22266 -0.9726,0.39844 -0.2578,0.17578 -0.4473,0.38672 -0.5684,0.63281 -0.1211,0.24609 -0.1816,0.5293 -0.1816,0.84961 0,0.54687 0.1738,0.98242 0.5215,1.30664 0.3476,0.32422 0.834,0.48633 1.459,0.48633 0.5078,0 0.9785,-0.12891 1.4121,-0.38672 0.4336,-0.25781 0.8886,-0.65234 1.3652,-1.1836 z m 15.1797,-0.60937 c 0,0.91406 -0.0996,1.73633 -0.2988,2.4668 -0.1993,0.73046 -0.4922,1.35351 -0.8789,1.86914 -0.3868,0.515621 -0.8614,0.910153 -1.4239,1.18359 -0.5625,0.2734375 -1.207,0.410156 -1.9336,0.410156 -0.3359,0 -0.6465,-0.033203 -0.9316,-0.099609 -0.2852,-0.0664064 -0.5645,-0.1738282 -0.8379,-0.322266 -0.2734,-0.148437 -0.5469,-0.335937 -0.8203,-0.5625 -0.2734,-0.226562 -0.5625,-0.500001 -0.8672,-0.820311 v 1.289061 c 0,0.0625 -0.0156,0.117188 -0.0469,0.164063 -0.0312,0.0468748 -0.082,0.0839841 -0.1523,0.1113279 C 48.5544,0.00976562 48.4665,0.03125 48.361,0.046875 48.2555,0.0625 48.1208,0.0703125 47.9567,0.0703125 47.8005,0.0703125 47.6677,0.0625 47.5583,0.046875 47.4489,0.03125 47.3591,0.00976562 47.2887,-0.0175781 47.2184,-0.0449219 47.1716,-0.0820312 47.1481,-0.128906 47.1247,-0.175781 47.113,-0.230469 47.113,-0.292969 V -15.9492 c 0,-0.0625 0.0136,-0.1172 0.041,-0.1641 0.0273,-0.0469 0.0781,-0.0859 0.1523,-0.1172 0.0742,-0.0312 0.1739,-0.0547 0.2989,-0.0703 0.125,-0.0156 0.2812,-0.0234 0.4687,-0.0234 0.1953,0 0.3555,0.0078 0.4805,0.0234 0.125,0.0156 0.2226,0.0391 0.2929,0.0703 0.0704,0.0313 0.1211,0.0703 0.1524,0.1172 0.0312,0.0469 0.0469,0.1016 0.0469,0.1641 v 6.31639 c 0.3125,-0.32031 0.6152,-0.58989 0.9082,-0.80859 0.2929,-0.2188 0.58,-0.3965 0.8613,-0.5332 0.2812,-0.1367 0.5625,-0.2363 0.8437,-0.2988 0.2813,-0.0625 0.5782,-0.0938 0.8907,-0.0938 0.7656,0 1.4199,0.1524 1.9629,0.457 0.5429,0.3047 0.9843,0.7129 1.3242,1.22465 0.3398,0.51172 0.5879,1.11133 0.7441,1.79883 0.1563,0.6875 0.2344,1.41406 0.2344,2.17969 z m -2.0039,0.22265 c 0,-0.53906 -0.0413,-1.06249 -0.1238,-1.57031 -0.0825,-0.50781 -0.226,-0.95703 -0.4304,-1.34765 -0.2044,-0.39063 -0.4756,-0.70508 -0.8135,-0.94336 -0.338,-0.23828 -0.7585,-0.35742 -1.2617,-0.35742 -0.2515,0 -0.499,0.03515 -0.7427,0.10546 -0.2436,0.07032 -0.4913,0.1875 -0.7428,0.35157 -0.2516,0.16406 -0.513,0.375 -0.7842,0.63281 -0.2712,0.25781 -0.56,0.58203 -0.8665,0.97266 v 4.20703 c 0.5345,0.64843 1.0454,1.14257 1.5327,1.48242 0.4873,0.33984 0.9944,0.50976 1.5211,0.50976 0.4873,0 0.9039,-0.11718 1.2498,-0.35156 0.3459,-0.23437 0.6269,-0.54492 0.843,-0.93164 0.2161,-0.38672 0.3733,-0.82031 0.4716,-1.30078 0.0983,-0.48047 0.1474,-0.9668 0.1474,-1.45899 z m 12.9127,5.20313 c 0,0.09375 -0.0312,0.164063 -0.0937,0.2109375 -0.0625,0.046875 -0.1484,0.0820313 -0.2578,0.1054687 -0.1094,0.0234375 -0.2695,0.0351563 -0.4805,0.0351563 -0.2031,0 -0.3652,-0.0117188 -0.4863,-0.0351563 C 66.2855,0.0117188 66.1976,-0.0234375 66.1429,-0.0703125 66.0882,-0.117187 66.0609,-0.1875 66.0609,-0.28125 v -1.05469 c -0.461,0.49219 -0.9746,0.875003 -1.541,1.14844 -0.5664,0.2734375 -1.166,0.410156 -1.7989,0.410156 -0.5546,0 -1.0566,-0.072265 -1.5058,-0.21679662 C 60.766,-0.138672 60.3831,-0.347656 60.0667,-0.621094 59.7503,-0.894531 59.5042,-1.23047 59.3285,-1.62891 c -0.1758,-0.39843 -0.2637,-0.85156 -0.2637,-1.35937 0,-0.59375 0.1211,-1.10938 0.3633,-1.54688 0.2422,-0.4375 0.5898,-0.80078 1.0429,-1.08984 0.4532,-0.28906 1.0079,-0.50586 1.6641,-0.65039 0.6563,-0.14453 1.3945,-0.2168 2.2148,-0.2168 h 1.4532 V -7.3125 c 0,-0.40625 -0.043,-0.76562 -0.1289,-1.07812 -0.086,-0.3125 -0.2246,-0.57227 -0.4161,-0.7793 -0.1914,-0.20703 -0.4394,-0.36328 -0.7441,-0.46875 -0.3047,-0.10547 -0.6797,-0.15821 -1.125,-0.15821 -0.4766,0 -0.9043,0.05665 -1.2832,0.16993 -0.3789,0.11328 -0.7109,0.23828 -0.9961,0.375 -0.2851,0.13672 -0.5234,0.26172 -0.7148,0.375 -0.1914,0.11328 -0.334,0.16992 -0.4278,0.16992 -0.0625,0 -0.1172,-0.01563 -0.164,-0.04688 -0.0469,-0.03125 -0.0879,-0.07812 -0.1231,-0.14062 -0.0351,-0.0625 -0.0605,-0.14258 -0.0761,-0.24024 -0.0157,-0.09765 -0.0235,-0.20507 -0.0235,-0.32226 0,-0.19531 0.0137,-0.34961 0.041,-0.46289 0.0274,-0.11328 0.0938,-0.22068 0.1993,-0.32228 0.1054,-0.1016 0.2871,-0.2207 0.5449,-0.3574 0.2578,-0.1367 0.5547,-0.2617 0.8906,-0.375 0.3359,-0.1133 0.7031,-0.207 1.1016,-0.2813 0.3984,-0.0742 0.8007,-0.1113 1.207,-0.1113 0.7578,0 1.4023,0.086 1.9336,0.2578 0.5312,0.1719 0.9609,0.4239 1.289,0.7559 0.3282,0.332 0.5665,0.74412 0.7149,1.23631 0.1484,0.49219 0.2226,1.06641 0.2226,1.72266 z m -1.9218,-4.81641 h -1.6524 c -0.5312,0 -0.9922,0.04493 -1.3828,0.13477 -0.3906,0.08984 -0.7148,0.22266 -0.9726,0.39844 -0.2579,0.17578 -0.4473,0.38672 -0.5684,0.63281 -0.1211,0.24609 -0.1816,0.5293 -0.1816,0.84961 0,0.54687 0.1738,0.98242 0.5214,1.30664 0.3477,0.32422 0.834,0.48633 1.459,0.48633 0.5078,0 0.9785,-0.12891 1.4121,-0.38672 0.4336,-0.25781 0.8887,-0.65234 1.3653,-1.1836 z m 12.0976,1.9336 c 0,0.53906 -0.0996,1.01953 -0.2988,1.4414 -0.1992,0.42188 -0.4824,0.777348 -0.8496,1.06641 C 76.3851,-0.367188 75.9476,-0.148437 75.4398,0 74.932,0.148437 74.3734,0.222656 73.764,0.222656 c -0.375,0 -0.7324,-0.029297 -1.0723,-0.08789 C 72.3519,0.0761719 72.0472,0.00195312 71.7777,-0.0878906 71.5081,-0.177734 71.2796,-0.271484 71.0921,-0.369141 70.9046,-0.466797 70.7679,-0.554688 70.682,-0.632812 70.596,-0.710938 70.5335,-0.820312 70.4945,-0.960938 70.4554,-1.10156 70.4359,-1.29297 70.4359,-1.53516 c 0,-0.14843 0.0078,-0.27343 0.0234,-0.375 0.0156,-0.10156 0.0352,-0.18359 0.0586,-0.24609 0.0235,-0.0625 0.0567,-0.10742 0.0996,-0.13477 0.043,-0.02734 0.0918,-0.04101 0.1465,-0.04101 0.0859,0 0.2129,0.05273 0.3809,0.1582 0.1679,0.10547 0.375,0.22071 0.6211,0.34571 0.2461,0.125 0.5371,0.24023 0.873,0.3457 0.3359,0.10547 0.7227,0.1582 1.1602,0.1582 0.3281,0 0.625,-0.03516 0.8906,-0.10547 0.2656,-0.07031 0.4961,-0.17383 0.6914,-0.31054 0.1953,-0.13672 0.3457,-0.31055 0.4512,-0.52149 0.1054,-0.21094 0.1582,-0.46094 0.1582,-0.75 0,-0.29687 -0.0762,-0.54687 -0.2285,-0.75 -0.1524,-0.20312 -0.3536,-0.38281 -0.6036,-0.53906 -0.25,-0.15625 -0.5312,-0.29492 -0.8437,-0.41602 -0.3125,-0.12109 -0.6348,-0.24804 -0.9668,-0.38086 -0.332,-0.13281 -0.6563,-0.2832 -0.9727,-0.45117 -0.3164,-0.16797 -0.5996,-0.37305 -0.8496,-0.61523 -0.25,-0.24219 -0.4511,-0.53125 -0.6035,-0.86719 -0.1523,-0.33594 -0.2285,-0.73828 -0.2285,-1.20703 0,-0.41406 0.0801,-0.81055 0.2402,-1.18945 0.1602,-0.37891 0.4004,-0.71097 0.7207,-0.99607 0.3203,-0.2852 0.7207,-0.5137 1.2012,-0.6856 0.4805,-0.1718 1.041,-0.2578 1.6816,-0.2578 0.2813,0 0.5625,0.0234 0.8438,0.0703 0.2812,0.0469 0.5352,0.1055 0.7617,0.1758 0.2266,0.0703 0.4199,0.1465 0.5801,0.2285 0.1601,0.0821 0.2812,0.1543 0.3633,0.2168 0.082,0.0625 0.1367,0.1172 0.164,0.1641 0.0274,0.0469 0.0469,0.0996 0.0586,0.1582 0.0117,0.0586 0.0235,0.1308 0.0352,0.2168 0.0117,0.0859 0.0176,0.19139 0.0176,0.31639 0,0.13281 -0.0059,0.24804 -0.0176,0.3457 -0.0117,0.09766 -0.0313,0.17773 -0.0586,0.24023 -0.0274,0.0625 -0.0606,0.10743 -0.0996,0.13477 -0.0391,0.02734 -0.082,0.04102 -0.1289,0.04102 -0.0703,0 -0.1719,-0.04297 -0.3047,-0.12891 -0.1328,-0.08594 -0.3047,-0.17773 -0.5156,-0.27539 -0.211,-0.09766 -0.459,-0.18945 -0.7442,-0.27539 -0.2851,-0.08594 -0.6113,-0.12891 -0.9785,-0.12891 -0.3281,0 -0.6172,0.03711 -0.8672,0.11133 -0.25,0.07422 -0.4551,0.17969 -0.6152,0.31641 -0.1602,0.13672 -0.2813,0.29883 -0.3633,0.48633 -0.082,0.1875 -0.123,0.39062 -0.123,0.60937 0,0.30469 0.0781,0.56055 0.2343,0.76758 0.1563,0.20703 0.3594,0.38867 0.6094,0.54492 0.25,0.15625 0.5352,0.29688 0.8555,0.42187 0.3203,0.12501 0.6465,0.25391 0.9785,0.38672 0.332,0.13282 0.6601,0.28125 0.9844,0.44532 0.3242,0.16406 0.6113,0.36328 0.8613,0.59765 0.25,0.23438 0.4512,0.51563 0.6035,0.84375 0.1524,0.32813 0.2285,0.71875 0.2285,1.17188 z M 89.613,-6.02344 c 0,0.30469 -0.0765,0.52149 -0.2296,0.65039 -0.153,0.12891 -0.3276,0.19336 -0.5239,0.19336 h -6.9458 c 0,0.58594 0.0589,1.11328 0.1767,1.58203 0.1177,0.46875 0.3139,0.8711 0.5887,1.20704 0.2748,0.33593 0.632,0.59375 1.0717,0.77343 0.4396,0.17969 0.9773,0.26953 1.6132,0.26953 0.5024,0 0.9499,-0.04101 1.3424,-0.12304 0.3926,-0.08203 0.7321,-0.17383 1.0187,-0.27539 0.2865,-0.10157 0.522,-0.19336 0.7066,-0.27539 0.1845,-0.08204 0.3238,-0.12305 0.4181,-0.12305 0.0549,0 0.104,0.01367 0.1471,0.04101 0.0432,0.02735 0.0765,0.06836 0.1001,0.12305 0.0235,0.05469 0.0412,0.13086 0.053,0.22852 0.0118,0.09765 0.0176,0.21679 0.0177,0.35742 -1e-4,0.10156 -0.004,0.18945 -0.0118,0.26367 -0.0078,0.07422 -0.0175,0.140626 -0.0293,0.199219 -0.0117,0.058594 -0.0312,0.111329 -0.0586,0.158203 -0.0273,0.046876 -0.0625,0.091797 -0.1054,0.134766 -0.043,0.042969 -0.17,0.113281 -0.3809,0.210938 -0.2109,0.097656 -0.4844,0.193359 -0.8203,0.287109 -0.3359,0.09375 -0.7246,0.1777344 -1.166,0.251953 -0.4414,0.074219 -0.9121,0.111328 -1.4121,0.111328 -0.8672,0 -1.627,-0.121094 -2.2793,-0.363281 -0.6524,-0.242187 -1.2012,-0.601563 -1.6465,-1.078125 -0.4453,-0.47656 -0.7813,-1.07422 -1.0078,-1.79297 -0.2266,-0.71875 -0.3399,-1.55469 -0.3399,-2.50781 0,-0.90625 0.1172,-1.7207 0.3516,-2.44336 0.2344,-0.72266 0.5723,-1.33594 1.0137,-1.83984 0.4414,-0.50387 0.9746,-0.89067 1.5996,-1.16017 0.625,-0.2695 1.3242,-0.4043 2.0976,-0.4043 0.8282,0 1.5332,0.1328 2.1153,0.3984 0.582,0.2657 1.0605,0.6231 1.4355,1.07232 0.375,0.44921 0.6504,0.97656 0.8262,1.58203 0.1758,0.60547 0.2637,1.25195 0.2637,1.93945 z m -1.9453,-0.57422 c 0.0234,-1.01562 -0.2026,-1.8125 -0.6781,-2.39062 -0.4755,-0.57813 -1.1809,-0.86719 -2.1163,-0.86719 -0.4795,0 -0.9,0.08985 -1.2616,0.26953 -0.3616,0.17969 -0.6642,0.41797 -0.9079,0.71485 -0.2438,0.29687 -0.4324,0.64257 -0.566,1.03711 -0.1336,0.39453 -0.2083,0.80664 -0.2241,1.23632 z"
         transform="translate(17.3306,33)"
         id="path97" />
    </g>
  </g>
  <text
     font-family="Calibri, Calibri_MSFontService, sans-serif"
     font-weight="400"
     font-size="24px"
     id="text103"
     x="1091.63"
     y="293">Database</text>
  <path
     d="m 774.042,253 268.518,3.767 -0.09,6 L 773.958,259 Z m 252.168,-6.554 22.26,13.404 -22.63,12.776 c -1.44,0.814 -3.27,0.305 -4.08,-1.138 -0.82,-1.442 -0.31,-3.272 1.13,-4.087 l 18.15,-10.246 -0.07,5.182 -17.85,-10.752 c -1.42,-0.855 -1.88,-2.698 -1.03,-4.117 0.86,-1.42 2.7,-1.877 4.12,-1.022 z"
     fill="#44546a"
     id="path105" />
  <text
     font-family="Calibri, Calibri_MSFontService, sans-serif"
     font-weight="400"
     font-size="24px"
     id="text107"
     x="874.75098"
     y="239">EF Core</text>
  <text
     fill="#7030a0"
     font-family="Calibri, Calibri_MSFontService, sans-serif"
     font-weight="400"
     font-size="24px"
     id="text109"
     x="820.76398"
     y="297">Add token support</text>
  <rect
     x="624.5"
     y="213.5"
     width="150"
     height="86"
     stroke="#507e32"
     stroke-width="1.33333"
     stroke-miterlimit="8"
     fill="#70ad47"
     id="rect111" />
  <text
     fill="#ffffff"
     font-family="Calibri, Calibri_MSFontService, sans-serif"
     font-weight="400"
     font-size="24px"
     id="text113"
     x="634.30603"
     y="249">ASP.NET Core</text>
  <text
     fill="#ffffff"
     font-family="Calibri, Calibri_MSFontService, sans-serif"
     font-weight="400"
     font-size="24px"
     id="text115"
     x="661.55902"
     y="278">Identity</text>
</svg>
