<?xml version="1.0" encoding="UTF-8"?>
<svg id="Layer_1" data-name="Layer 1" xmlns="http://www.w3.org/2000/svg" viewBox="0 0 180.74 45.2">
  <defs>
    <style>
      .cls-1 {
        fill: #fff;
      }

      .cls-2 {
        fill: #4711de;
      }
    </style>
  </defs>
  <g id="Layer_2" data-name="Layer 2">
    <g id="Layer_1-2" data-name="Layer 1-2">
      <rect class="cls-2" width="180.74" height="45.2" rx="6.53" ry="6.53"/>
      <g id="letters">
        <polygon class="cls-1" points="30.14 22.69 33.93 22.69 33.93 20.98 30.14 20.98 30.14 18.38 34.58 18.38 34.58 16.65 28.15 16.65 28.15 27.15 34.73 27.15 34.73 25.43 30.14 25.43 30.14 22.69"/>
        <polygon class="cls-1" points="43.31 19.26 41.17 19.26 39.64 21.75 39.55 21.75 38 19.26 35.86 19.26 38.36 23.06 35.65 27.15 37.79 27.15 39.52 24.48 39.64 24.48 41.36 27.15 43.52 27.15 40.82 23.09 43.31 19.26"/>
        <path class="cls-1" d="M50.14,20.28h-.1c-.27-.4-1.04-1.21-2.4-1.21-2.16,0-3.66,1.71-3.66,4.19s1.52,4.09,3.72,4.09c1.44,0,2.14-.87,2.37-1.2h.1v1h1.92v-7.89h-1.95v1.02Zm-2.07,5.31c-1.26,0-2.12-.95-2.12-2.37s.85-2.39,2.1-2.39,2.13,.9,2.13,2.39c0,1.32-.81,2.37-2.11,2.37Z"/>
        <path class="cls-1" d="M62.99,19.06c-1.02,0-1.8,.38-2.34,1.2h-.12c-.45-.74-1.26-1.2-2.34-1.2s-1.8,.56-2.15,1.16h-.1v-.96h-1.86v7.89h1.95v-4.53c0-1,.65-1.72,1.51-1.72s1.47,.62,1.47,1.58v4.68h1.95v-4.52c0-1.07,.64-1.74,1.53-1.74,.93,0,1.42,.62,1.42,1.7v4.56h1.95v-5.23c0-1.67-1.14-2.85-2.88-2.85Z"/>
        <path class="cls-1" d="M72.25,19.06c-1.44,0-2.16,.87-2.37,1.2h-.1v-1h-1.92v11.34h1.95v-4.47h.1c.25,.43,1,1.21,2.4,1.21,2.16,0,3.66-1.71,3.66-4.17s-1.52-4.11-3.72-4.11Zm-.38,6.51c-1.21,0-2.12-.9-2.12-2.37,0-1.33,.81-2.37,2.1-2.37s2.13,.93,2.13,2.37-.85,2.37-2.11,2.37Z"/>
        <path class="cls-1" d="M79.41,24.75V15.9h-1.95v9.03c0,1.39,.78,2.22,2.16,2.22h.73v-1.71h-.31c-.41,0-.63-.24-.63-.69Z"/>
        <path class="cls-1" d="M85.41,19.06c-2.31,0-3.98,1.7-3.98,4.19,0,2.35,1.65,4.09,3.98,4.09,2.04,0,3.45-1.05,3.84-2.66h-1.81c-.27,.65-1,1.09-1.96,1.09-1.26,0-2.08-.81-2.15-2.01h6v-.62c0-2.22-1.38-4.1-3.92-4.1Zm-2.06,3.33c.12-.99,.96-1.77,2.06-1.77s1.96,.71,2.05,1.77h-4.11Z"/>
        <path class="cls-1" d="M92.56,21.42c0-.51,.51-.86,1.3-.86,.86,0,1.31,.38,1.4,.95h1.72c-.12-1.58-1.39-2.45-3.1-2.45-1.95,0-3.11,1.08-3.11,2.42,0,3.3,4.53,1.71,4.53,3.39,0,.56-.51,.95-1.41,.95s-1.42-.36-1.5-1.04h-1.8c.08,1.56,1.14,2.57,3.27,2.57s3.33-1.08,3.33-2.58c0-3.42-4.63-1.85-4.63-3.35Z"/>
        <path class="cls-1" d="M111.12,21.23h-1.73c.21,1.04,.02,1.98-.42,2.73l-1.9-2.07,.24-.13c1.1-.57,1.89-1.32,1.88-2.64-.01-1.48-1.18-2.65-2.91-2.65s-2.92,1.23-2.92,2.68c0,.95,.48,1.71,1,2.33-1.25,.71-1.86,1.59-1.86,2.76,0,2.04,1.71,3.12,3.63,3.12,1.05,0,2.01-.32,2.79-.83l.57,.63h2.41l-1.69-1.84c.85-1.14,1.23-2.63,.92-4.08Zm-4.84-3.12c.71,0,1.09,.5,1.09,1.04s-.23,.88-.99,1.26l-.45,.24c-.48-.51-.75-.9-.75-1.47s.45-1.07,1.1-1.07Zm-.14,7.55c-.99,0-1.74-.63-1.74-1.42,0-.71,.42-1.16,1.08-1.5l2.25,2.49c-.48,.27-1.02,.43-1.59,.43Z"/>
        <path class="cls-1" d="M120.94,16.65h-3.54v10.5h3.54c3.34,0,5.35-2.03,5.35-5.28,0-3.06-2.01-5.22-5.35-5.22Zm-.08,8.76h-1.47v-7.02h1.47c1.86,0,3.36,1.12,3.36,3.48s-1.51,3.54-3.36,3.54Z"/>
        <path class="cls-1" d="M131.76,19.06c-2.49,0-4.2,1.8-4.2,4.14s1.72,4.14,4.2,4.14,4.2-1.8,4.2-4.14-1.72-4.14-4.2-4.14Zm0,6.51c-1.29,0-2.22-.97-2.22-2.37s.92-2.37,2.22-2.37,2.22,1,2.22,2.37-.93,2.37-2.22,2.37Z"/>
        <path class="cls-1" d="M141.33,20.84c.92,0,1.65,.55,1.89,1.33h2c-.3-1.86-1.88-3.11-3.9-3.11-2.48,0-4.12,1.82-4.12,4.14s1.65,4.14,4.12,4.14c2.02,0,3.58-1.21,3.88-3.04h-2c-.23,.76-.96,1.27-1.86,1.27-1.29,0-2.17-1-2.17-2.37s.84-2.37,2.16-2.37Z"/>
        <path class="cls-1" d="M148.46,21.42c0-.51,.51-.86,1.3-.86,.86,0,1.3,.38,1.4,.95h1.72c-.12-1.58-1.4-2.45-3.1-2.45-1.95,0-3.11,1.08-3.11,2.42,0,3.3,4.53,1.71,4.53,3.39,0,.56-.51,.95-1.41,.95s-1.42-.36-1.5-1.04h-1.8c.08,1.56,1.14,2.57,3.27,2.57s3.33-1.08,3.33-2.58c0-3.42-4.63-1.85-4.63-3.35Z"/>
      </g>
    </g>
  </g>
</svg>