<?xml version="1.0" encoding="UTF-8"?>
<svg width="512px" height="512px" viewBox="0 0 512 512" version="1.1" xmlns="http://www.w3.org/2000/svg" xmlns:xlink="http://www.w3.org/1999/xlink">
    <title>dragonfly-svgrepo-com</title>
    <g id="Page-1" stroke="none" stroke-width="1" fill="none" fill-rule="evenodd">
        <g id="dragonfly-svgrepo-com" transform="translate(-0.000500, 0.003297)" fill-rule="nonzero">
            <path d="M4.9095,507.083703 L4.9095,507.083703 C-1.6365,500.537703 -1.6365,489.925703 4.9095,483.379703 L194.5465,293.742703 C201.0925,287.196703 211.7045,287.196703 218.2505,293.742703 L218.2505,293.742703 C224.7965,300.288703 224.7965,310.900703 218.2505,317.446703 L28.6155,507.083703 C22.0695,513.629703 11.4555,513.629703 4.9095,507.083703 Z" id="Path" fill="#57A3F5"></path>
            <path d="M28.6155,507.083703 L218.2525,317.446703 C224.7985,310.900703 224.7975,300.287703 218.2525,293.742703 L4.9095,507.083703 C11.4555,513.629703 22.0695,513.629703 28.6155,507.083703 Z" id="Path" fill="#2C8EF8"></path>
            <path d="M378.0085,184.254703 C365.1215,184.254703 352.2435,179.354703 342.4445,169.555703 C332.9395,160.050703 327.7125,147.424703 327.7125,133.991703 C327.7125,120.558703 332.9395,107.932703 342.4445,98.4337026 C362.0325,78.8407026 393.9525,78.8177026 413.5625,98.4337026 C433.1615,118.043703 433.1615,149.941703 413.5735,169.545703 C413.5625,169.551703 413.5625,169.551703 413.5625,169.551703 C403.7605,179.355703 390.8845,184.254703 378.0085,184.254703 Z M401.7105,157.699703 L401.8195,157.699703 L401.7105,157.699703 Z" id="Shape" fill="#57A3F5"></path>
            <path d="M342.4435,169.554703 C352.2435,179.354703 365.1205,184.255703 378.0075,184.254703 C390.8865,184.254703 403.7615,179.354703 413.5605,169.554703 C413.5605,169.554703 413.5615,169.550703 413.5715,169.543703 C433.1605,149.940703 433.1605,118.042703 413.5615,98.4327026 L342.4415,169.552703 L342.4435,169.554703 Z" id="Path" fill="#2C8EF8"></path>
            <path d="M383.9665,457.581703 C382.2315,457.581703 380.4965,457.511703 378.7505,457.369703 C360.2865,455.841703 343.5255,446.320703 332.7655,431.244703 L245.8905,309.624703 C241.1325,302.956703 241.8855,293.822703 247.6805,288.028703 L295.0845,240.618703 C301.3705,234.332703 312.5015,234.332703 318.7865,240.618703 L428.4035,350.229703 L428.4035,350.229703 C452.9135,374.749703 452.9135,414.641703 428.4035,439.161703 C416.5395,451.023703 400.5865,457.581703 383.9665,457.581703 Z" id="Path" fill="#C9D3D9"></path>
            <path d="M449.1135,392.368703 C433.0065,392.368703 416.9105,386.241703 404.6445,373.986703 C404.6445,373.980703 404.6445,373.980703 404.6445,373.980703 L295.0385,264.369703 C288.4915,257.827703 288.4915,247.214703 295.0385,240.667703 L342.4425,193.257703 C348.2375,187.457703 357.3705,186.715703 364.0385,191.467703 L485.6705,278.342703 C500.7405,289.107703 510.2565,305.869703 511.7845,324.333703 C513.3125,342.786703 506.6775,360.885703 493.5825,373.980703 C481.3285,386.240703 465.2205,392.368703 449.1135,392.368703 Z" id="Path" fill="#DAE1E6"></path>
            <path d="M212.1155,269.230703 C208.7215,269.230703 205.3055,268.204703 202.3705,266.109703 L80.7495,179.229703 C65.6795,168.469703 56.1635,151.707703 54.6245,133.254703 C53.0965,114.790703 59.7315,96.6917026 72.8375,83.5917026 C84.7105,71.7137026 100.5005,65.1717026 117.2955,65.1717026 C134.0905,65.1717026 149.8805,71.7137026 161.7645,83.5857026 L161.7645,83.5917026 L271.3815,193.208703 C274.5245,196.351703 276.2925,200.612703 276.2925,205.059703 C276.2925,209.506703 274.5245,213.767703 271.3815,216.909703 L223.9665,264.319703 C220.7255,267.566703 216.4255,269.230703 212.1155,269.230703 Z" id="Path" fill="#DBE1E5"></path>
            <path d="M259.4755,221.871703 C255.1865,221.871703 250.8975,220.234703 247.6245,216.960703 L138.0075,107.343703 L138.0075,107.343703 C113.4975,82.8287026 113.4975,42.9317026 138.0075,18.4177026 C151.1035,5.31570259 169.1845,-1.29129741 187.6605,0.209702591 C206.1245,1.73770259 222.8855,11.2587026 233.6455,26.3347026 L320.5315,147.955703 C325.2895,154.623703 324.5365,163.757703 318.7415,169.551703 L271.3265,216.961703 C268.0525,220.234703 263.7635,221.871703 259.4755,221.871703 Z" id="Path" fill="#EDF0F2"></path>
            <path d="M198.4985,313.496703 L198.4985,313.496703 C178.8605,293.858703 178.8605,262.020703 198.4985,242.382703 L293.3175,147.563703 C312.9555,127.925703 344.7935,127.925703 364.4315,147.563703 L364.4315,147.563703 C384.0695,167.201703 384.0695,199.039703 364.4315,218.677703 L269.6125,313.496703 C249.9745,333.134703 218.1355,333.134703 198.4985,313.496703 Z" id="Path" fill="#61DAF2"></path>
            <path d="M269.6115,313.496703 L364.4305,218.677703 C384.0685,199.039703 384.0685,167.201703 364.4305,147.563703 L198.4985,313.496703 C218.1365,333.134703 249.9745,333.134703 269.6115,313.496703 Z" id="Path" fill="#45C7E6"></path>
        </g>
    </g>
</svg>